<svg width="50" height="38" viewBox="0 0 50 38" fill="none" xmlns="http://www.w3.org/2000/svg">
<path d="M36.2542 13.6916H41.9775V17.022H30.3088V13.6916L34.9961 9.86782C37.315 7.96826 38.6471 6.95681 38.6471 5.45197C38.6471 4.36651 38.3264 3.33039 36.2789 3.33039C34.2313 3.33039 33.8859 4.56387 33.8859 5.92069H30.3088C30.3088 2.78766 31.715 0 36.2789 0C40.8181 0 42.2242 2.78766 42.2242 5.55065C42.2242 7.79558 41.4595 9.22641 39.1652 11.1753L36.2542 13.6916Z" fill="black"/>
<path d="M23.3158 17.022H16.6057V0.246674H23.3158C27.1889 0.246674 28.5951 2.09689 28.5951 4.31715C28.5951 6.09336 27.5836 7.77089 25.1166 7.86956V8.26428C28.003 8.36295 29.0884 9.91714 29.0884 12.1374C29.0884 14.7277 27.9043 17.022 23.3158 17.022ZM23.1184 3.57706H20.1827V6.4634H23.1184C24.4259 6.4634 25.018 6.2167 25.018 4.98323C25.018 3.82376 24.4259 3.57706 23.1184 3.57706ZM23.3158 9.79379H20.1827V13.3215H23.3158C24.7959 13.3215 25.5114 13.0748 25.5114 11.5947C25.5114 10.0405 24.7959 9.79379 23.3158 9.79379Z" fill="black"/>
<path d="M10.5339 0.246674L15.5665 17.022H11.7427L10.8546 13.9876H4.71188L3.82378 17.022H0L5.03259 0.246674H10.5339ZM7.99293 3.92244H7.59822L5.64933 10.6572H9.91716L7.99293 3.92244Z" fill="black"/>
<path d="M36.24 36.3464C32.4162 36.3464 30.0479 34.3729 29.6285 31.3879H33.3043C33.699 32.2266 34.4638 33.0161 36.0426 33.0161C38.0162 33.0161 38.6823 32.0046 38.6823 30.4998C38.6823 28.9209 38.0162 28.0081 36.0426 28.0081C34.5131 28.0081 33.8717 28.5755 33.551 29.3403H30.0233L31.2567 19.3245H41.0752V22.6549H34.2911L33.921 25.7879C34.7351 25.0478 35.7959 24.6778 37.1034 24.6778C40.4091 24.6778 42.2593 27.3421 42.2593 30.2777C42.2593 33.5588 40.2364 36.3464 36.24 36.3464Z" fill="black"/>
<path d="M22.178 32.7694H27.9014V36.0998H16.2327V32.7694L20.9199 28.9456C23.2388 27.0461 24.571 26.0346 24.571 24.5298C24.571 23.4443 24.2503 22.4082 22.2027 22.4082C20.1551 22.4082 19.8097 23.6417 19.8097 24.9985H16.2327C16.2327 21.8654 17.6388 19.0778 22.2027 19.0778C26.7419 19.0778 28.1481 21.8654 28.1481 24.6284C28.1481 26.8734 27.3833 28.3042 25.089 30.2531L22.178 32.7694Z" fill="black"/>
<path d="M5.69867 29.365H3.57708V36.0998H0V19.3245H3.57708V26.0346H5.69867L9.94183 19.3245H14.259L8.65901 27.7121L14.259 36.0998H9.94183L5.69867 29.365Z" fill="black"/>
<path d="M46.797 2.29604C46.6669 2.29604 46.5712 2.3343 46.51 2.41084C46.4564 2.48737 46.4296 2.57156 46.4296 2.6634V3.71958C46.4296 3.81142 46.4564 3.89561 46.51 3.97214C46.5712 4.04868 46.6669 4.08694 46.797 4.08694C46.9271 4.08694 47.019 4.04868 47.0725 3.97214C47.1338 3.89561 47.1644 3.81142 47.1644 3.71958V3.53589H48.0598V3.71958C48.0598 4.07164 47.945 4.35864 47.7154 4.58059C47.4935 4.80254 47.1873 4.91352 46.797 4.91352C46.422 4.91352 46.1159 4.80254 45.8786 4.58059C45.649 4.35864 45.5342 4.07164 45.5342 3.71958V2.6634C45.5342 2.31134 45.649 2.02434 45.8786 1.80239C46.1082 1.58044 46.4143 1.46946 46.797 1.46946C47.1873 1.46946 47.4935 1.58044 47.7154 1.80239C47.945 2.02434 48.0598 2.31134 48.0598 2.6634V2.84708H47.1644V2.6634C47.1644 2.57156 47.1338 2.48737 47.0725 2.41084C47.019 2.3343 46.9271 2.29604 46.797 2.29604ZM43.617 3.19149C43.617 2.75524 43.7012 2.34196 43.8696 1.95163C44.0379 1.5613 44.2637 1.22455 44.5469 0.941375C44.8377 0.650544 45.1783 0.42094 45.5686 0.252564C45.959 0.084188 46.3722 0 46.8085 0C47.2447 0 47.658 0.084188 48.0484 0.252564C48.4387 0.42094 48.7754 0.650544 49.0586 0.941375C49.3494 1.22455 49.579 1.5613 49.7474 1.95163C49.9158 2.34196 50 2.75524 50 3.19149C50 3.62774 49.9158 4.04102 49.7474 4.43135C49.579 4.82167 49.3494 5.16225 49.0586 5.45308C48.7754 5.73626 48.4387 5.96204 48.0484 6.13041C47.658 6.29879 47.2447 6.38298 46.8085 6.38298C46.3722 6.38298 45.959 6.29879 45.5686 6.13041C45.1783 5.96204 44.8377 5.73626 44.5469 5.45308C44.2637 5.16225 44.0379 4.82167 43.8696 4.43135C43.7012 4.04102 43.617 3.62774 43.617 3.19149ZM44.5125 3.19149C44.5125 3.51293 44.5699 3.81525 44.6847 4.09842C44.8071 4.37395 44.9717 4.61503 45.1783 4.82167C45.385 5.02832 45.626 5.19287 45.9016 5.31532C46.1847 5.43012 46.487 5.48752 46.8085 5.48752C47.1299 5.48752 47.4284 5.43012 47.7039 5.31532C47.9871 5.19287 48.232 5.02832 48.4387 4.82167C48.6453 4.61503 48.806 4.37395 48.9208 4.09842C49.0433 3.81525 49.1045 3.51293 49.1045 3.19149C49.1045 2.87004 49.0433 2.57156 48.9208 2.29604C48.806 2.01286 48.6453 1.76795 48.4387 1.5613C48.232 1.35466 47.9871 1.19394 47.7039 1.07914C47.4284 0.956682 47.1299 0.895454 46.8085 0.895454C46.487 0.895454 46.1847 0.956682 45.9016 1.07914C45.626 1.19394 45.385 1.35466 45.1783 1.5613C44.9717 1.76795 44.8071 2.01286 44.6847 2.29604C44.5699 2.57156 44.5125 2.87004 44.5125 3.19149Z" fill="black"/>
</svg>
